<svg width="1196" height="614" viewBox="0 0 1196 614" fill="none" xmlns="http://www.w3.org/2000/svg">
<path fill-rule="evenodd" clip-rule="evenodd" d="M260.053 179C260.064 178.168 260.07 177.335 260.07 176.5C260.07 79.0217 183.287 0 88.5698 0C56.1611 0 25.852 9.25158 0 25.3285C87.2222 31.0372 156.725 110.444 159.356 208.626H159.433V214.401V614H260.07V179H260.053ZM340.57 74V614H442.57V431H556.381L645.07 614H760.57L663.074 414.008C686.682 403.59 705.43 388.504 719.32 368.75C741.82 336.5 753.07 297.75 753.07 252.5C753.07 222.25 748.195 194.875 738.445 170.375C728.695 145.625 713.445 125.125 692.695 108.875C672.195 92.625 645.82 82 613.57 77C606.57 75.75 598.57 75 589.57 74.75C580.82 74.25 573.82 74 568.57 74H340.57ZM564.07 335.75H442.57V169.25H564.07C569.32 169.25 575.07 169.5 581.32 170C587.57 170.5 593.32 171.5 598.57 173C612.32 176.75 622.945 183.125 630.445 192.125C637.945 200.875 643.07 210.75 645.82 221.75C648.82 232.5 650.32 242.75 650.32 252.5C650.32 262.25 648.82 272.625 645.82 283.625C643.07 294.375 637.945 304.25 630.445 313.25C622.945 322 612.32 328.25 598.57 332C593.32 333.5 587.57 334.5 581.32 335C575.07 335.5 569.32 335.75 564.07 335.75ZM843.011 74V614H1195.51V518.75H945.011V380H1150.51V284.75H945.011V169.25H1195.51V74H843.011Z" fill="#BECDFA"/>
</svg>
