            <svg
              width="1204"
              height="614"
              viewBox="0 0 1204 614"
              fill="none"
              xmlns="http://www.w3.org/2000/svg"
            >
              <path
                fill-rule="evenodd"
                clip-rule="evenodd"
                d="M214.316 164V594H167.316V614H268.316V179H268.299C268.31 178.168 268.316 177.335 268.316 176.5C268.316 79.0217 191.533 0 96.8157 0C88.0882 0 79.513 0.670918 71.1361 1.96537C150.593 13.9508 211.773 79.338 214.239 159H214.316V164ZM96.8157 353C60.8944 353 27.5524 341.634 0 322.206C14.2754 325.983 29.3022 328 44.8159 328C72.7411 328 99.0891 321.466 122.316 309.892V351.062C113.996 352.339 105.481 353 96.8157 353ZM348.816 74V614H450.816V431H564.627L653.316 614H768.816L671.32 414.008C694.927 403.59 713.676 388.504 727.566 368.75C750.066 336.5 761.316 297.75 761.316 252.5C761.316 222.25 756.441 194.875 746.691 170.375C736.941 145.625 721.691 125.125 700.941 108.875C680.441 92.625 654.066 82 621.816 77C614.816 75.75 606.816 75 597.816 74.75C589.066 74.25 582.066 74 576.816 74H348.816ZM572.316 335.75H450.816V169.25H572.316C577.566 169.25 583.316 169.5 589.566 170C595.816 170.5 601.566 171.5 606.816 173C620.566 176.75 631.191 183.125 638.691 192.125C646.191 200.875 651.316 210.75 654.066 221.75C657.066 232.5 658.566 242.75 658.566 252.5C658.566 262.25 657.066 272.625 654.066 283.625C651.316 294.375 646.191 304.25 638.691 313.25C631.191 322 620.566 328.25 606.816 332C601.566 333.5 595.816 334.5 589.566 335C583.316 335.5 577.566 335.75 572.316 335.75ZM851.257 74V614H1203.76V518.75H953.257V380H1158.76V284.75H953.257V169.25H1203.76V74H851.257Z"
                fill="white"
              />
            </svg>